<?xml version="1.0" encoding="utf-8"?>
<!-- Generator: Adobe Illustrator 21.0.0, SVG Export Plug-In . SVG Version: 6.00 Build 0)  -->
<svg version="1.1" id="Layer_1" xmlns="http://www.w3.org/2000/svg" xmlns:xlink="http://www.w3.org/1999/xlink" x="0px" y="0px"
	 viewBox="0 0 300 120" style="enable-background:new 0 0 300 120;" xml:space="preserve">
<style type="text/css">
	.st0{fill:#EFEFEF;}
	.st1{fill:#92C849;}
</style>
<g>
	<path class="st0" d="M116.6,46.4c-2.2,0-4.1,0.3-5.9,0.9c-1.3,0.4-2.5,0.9-3.6,1.6c0-0.5,0-0.9-0.1-1.4l-0.1-0.7l-0.7,0
		c-7,0.2-7.5,0.4-7.7,0.5c-0.4,0.1-1.1,0.6-1.1,1.7c0,0.7,0.2,1.2,0.5,1.9l0.2,0.3h0.5c1.3,0,1.6,0.7,1.8,1.1
		c0.2,0.5,0.5,2.5,0.5,9.9v12.5c0,4.6,0.1,8.4,0,11.2h-1.3c-0.7,0-1.2,0.1-1.6,0.5c-0.4,0.4-0.6,0.8-0.6,1.5c0,0.6,0.1,1.3,0.4,2.1
		l0.2,0.5h12.7c0.8,0,1.4-0.2,1.7-0.5c0.4-0.3,0.6-0.9,0.6-1.7c0-0.7-0.1-1.3-0.4-1.9l-0.2-0.4h-3.6c-0.1-2.9-0.2-5.3-0.2-8.4
		c0.4,0.1,0.8,0.1,1.3,0.2c0.9,0.1,2,0.2,3.3,0.2c4.8,0,8.6-1.5,11.1-4.5c2.5-3,3.7-7.6,3.7-13.6c0-4.7-0.9-8.2-2.8-10.3
		C123.2,47.5,120.4,46.4,116.6,46.4z M119.8,62.7c0,3.7-0.5,6.4-1.4,7.9c-0.9,1.4-2.4,2-4.8,2c-1.1,0-2.4-0.1-3.3-0.4
		c-0.8-0.2-1.8-0.6-2.3-0.9V58.5c0-1.8,0.5-3.2,1-4.2c0.4-0.9,1.2-1.5,2-1.9c0.8-0.4,1.9-0.6,2.9-0.6c2.1,0,3.6,0.7,4.5,2.3
		C119.3,55.7,119.8,58.6,119.8,62.7z"/>
	<path class="st0" d="M158.3,72.9l-0.5,0.1c-0.1,0-0.2,0-0.2,0c-0.2,0-0.3,0-0.6-0.7c-0.2-0.6-0.4-2.3-0.4-7.4v-9.1
		c0-3.4-1.1-5.9-2.9-7.2c-1.8-1.3-4.5-1.9-8.2-1.9c-2.6,0-5.2,0.2-7.5,0.5c-3.2,0.4-4,0.7-4.3,0.9c-0.5,0.4-0.8,0.9-0.8,1.5
		c0,0.7,0.2,1.6,0.7,2.6c0.5,1.1,0.9,1.8,1.4,2.2c0.6,0.5,1.5,0.7,2.8,0.3c1.6-0.4,1.8-0.5,1.9-0.6c0.2-0.1,0.3-0.2,1.1-1.8
		c0.9-0.2,1.9-0.3,2.9-0.3c2,0,3.3,0.6,4,1.7c0.7,1.1,1.2,3.7,1.3,6.1h-3.6c-4.6,0-8.1,0.8-10.4,2.5c-2.3,1.7-3.5,4.2-3.5,7.5
		c0,2.7,0.7,4.7,2.2,6.1c1.4,1.4,3.6,2.1,6.4,2.1c1.7,0,3.5-0.3,5.3-0.8c1.6-0.4,3.1-1.1,4.6-1.9c0.9,1.5,1.3,1.9,1.7,2.1
		c0.5,0.2,1.1,0.3,1.9,0.3c1.5,0,2.7-0.2,3.7-0.6c1.4-0.6,1.7-1.5,1.7-2.2c0-0.5-0.1-1.1-0.4-1.6L158.3,72.9z M140.2,65.7
		c0.8-0.6,2.2-0.9,4.3-0.9c1.5,0,3.3,0.1,4.6,0.3v1.1c0,1.9-0.2,3.2-0.6,4c-0.3,0.7-0.9,1.3-1.9,1.7c-1,0.5-2.2,0.7-3.3,0.7
		c-1.5,0-2.5-0.3-3.2-1c-0.6-0.6-1-1.7-1-3C139.2,67.2,139.5,66.3,140.2,65.7z"/>
	<path class="st0" d="M193,72.6h-0.6c-0.8,0-1.5,0-2-0.5c-0.5-0.3-1.4-1.2-3.3-3.6c-1.5-1.9-3.6-4.7-6.3-8.9l8.2-7.4h0.9
		c0.8,0,1.4-0.3,1.8-0.7c0.4-0.4,0.6-1,0.6-1.9c0-0.7-0.1-1.5-0.4-2.2l-0.2-0.5H182c-0.7,0-1.3,0.2-1.7,0.6c-0.4,0.4-0.5,1-0.5,1.8
		c0,0.7,0.2,1.6,0.4,2.2l0.2,0.6h0.9c-1.2,1.6-2.5,2.5-3.9,3.8c-1.4,1.3-2.8,2.4-4.1,3.5V37.9c0-1-0.1-1.8-0.2-2.2
		c-0.1-0.5-0.5-1.1-1.5-1.4c-0.6-0.2-1.7-0.2-3.4-0.2c-3.7,0-4.7,0.1-5.1,0.3c-0.8,0.3-1.3,0.9-1.3,1.9c0,0.7,0.1,1.5,0.4,2.2
		l0.2,0.5h0.5c0.7,0,1.2,0,1.6,0.2c0.3,0.1,0.5,0.4,0.6,0.8c0.1,0.4,0.3,1.5,0.4,4.2c0.1,2.3,0.1,7.4,0.1,15.6
		c0,5.9-0.1,10.5-0.2,12.9H164c-0.7,0-1.2,0.4-1.6,0.7c-0.4,0.3-0.6,0.9-0.6,1.6c0,0.6,0.1,1.3,0.4,2l0.2,0.4h11.6
		c0.8,0,1.4-0.1,1.7-0.4c0.4-0.3,0.6-0.8,0.6-1.6c0-0.7-0.1-1.5-0.4-2.1l-0.2-0.6h-2.4c-0.1-1.8-0.2-4.4-0.2-6.6l2.7-2.4
		c2,3.1,3.6,5.6,4.6,7.3c1.1,1.8,1.9,3.2,2.4,4c0.6,1,1.2,1.6,1.8,2c0.4,0.2,1.3,0.5,4,0.5c2.5,0,3.8-0.3,4.3-1.1
		c0.5-0.7,0.6-1.9,0.2-3.1L193,72.6z"/>
	<path class="st0" d="M214.6,46.4c-2.2,0-4.1,0.3-5.9,0.9c-1.3,0.4-2.5,0.9-3.6,1.6c0-0.5,0-0.9-0.1-1.4l-0.1-0.7l-0.7,0
		c-7,0.2-7.5,0.4-7.7,0.5c-0.4,0.1-1.1,0.6-1.1,1.7c0,0.7,0.2,1.2,0.5,1.9l0.2,0.3h0.5c1.3,0,1.9,0.7,2.1,1.1
		c0.2,0.5,0.8,2.5,0.8,9.9v12.5c0,4.6-0.5,8.4-0.6,11.2h-1.3c-0.7,0-1.2,0.1-1.6,0.5c-0.4,0.4-0.6,0.8-0.6,1.5
		c0,0.6,0.1,1.3,0.4,2.1l0.2,0.5h12.7c0.8,0,1.4-0.2,1.7-0.5c0.4-0.3,0.6-0.9,0.6-1.7c0-0.7-0.1-1.3-0.4-1.9l-0.2-0.4h-3.6
		c-0.1-2.9-0.2-5.3-0.2-8.4c0.4,0.1,0.8,0.1,1.3,0.2c0.9,0.1,2,0.2,3.3,0.2c4.8,0,8.6-1.5,11.1-4.5c2.5-3,3.7-7.6,3.7-13.6
		c0-4.7-0.9-8.2-2.8-10.3C221.2,47.5,218.3,46.4,214.6,46.4z M217.8,62.7c0,3.7-0.5,6.4-1.4,7.9c-0.9,1.4-2.4,2-4.8,2
		c-1.1,0-2-0.1-2.9-0.4c-0.8-0.2-1.6-0.6-1.9-0.9V58.5c0-1.8,0.1-3.2,0.5-4.2c0.4-0.9,1-1.5,1.8-1.9c0.8-0.4,1.8-0.6,2.8-0.6
		c2.1,0,3.5,0.7,4.4,2.3C217.3,55.7,217.8,58.6,217.8,62.7z"/>
	<path class="st0" d="M244.6,46.4c-4.8,0-8.5,1.6-11.1,4.6c-2.5,3-3.8,7.3-3.8,12.7c0,4.7,1.1,8.3,3.2,10.7c2.1,2.4,5.5,3.6,9.9,3.6
		c4.8,0,8.5-1.6,11.1-4.6c2.5-3,3.8-7.3,3.8-12.7c0-4.7-1.1-8.4-3.2-10.7C252.4,47.6,249.1,46.4,244.6,46.4z M239.3,54
		c0.9-1.5,2.2-2.2,4.2-2.2c2.2,0,3.8,0.8,4.7,2.6c1,1.8,1.5,4.8,1.5,8.7c0,3.4-0.5,5.9-1.4,7.4c-0.9,1.5-2.2,2.2-4.2,2.2
		c-2.2,0-3.8-0.8-4.7-2.5c-1-1.8-1.5-4.8-1.5-8.6C237.9,58.1,238.4,55.5,239.3,54z"/>
	<path class="st0" d="M290.5,73.3l-0.3-0.4l-0.5,0.1c0,0-0.1,0-0.1,0c-0.2,0-0.3-0.4-0.5-1.1c-0.2-0.8-0.3-3.7-0.3-12.9V37.9
		c0-1-0.2-1.8-0.3-2.2c-0.1-0.5-0.5-1.1-1.5-1.4c-0.6-0.2-1.7-0.2-3.4-0.2c-3.8,0-4.7,0.1-5.1,0.3c-0.8,0.3-1.3,0.9-1.3,1.9
		c0,0.7,0.1,1.5,0.4,2.2l0.2,0.5h0.5c0.6,0,1.2,0,1.6,0.2c0.3,0.1,0.5,0.4,0.6,0.8c0.2,0.6,0.3,1.7,0.4,3.3c0.1,1.3,0.1,2.5,0.1,3.7
		c-0.4-0.1-0.9-0.2-1.3-0.2c-0.8-0.1-1.8-0.2-3-0.2c-5,0-8.8,1.5-11.3,4.5c-2.5,3-3.8,7.3-3.8,12.9c0,5.2,0.9,8.8,2.9,10.9
		c1.9,2.2,4.7,3.3,8.3,3.3c1.7,0,3.4-0.2,5-0.7c1.4-0.4,2.9-1.1,4.5-1.9c0.6,1.2,0.9,1.7,1.2,1.9c0.5,0.5,1.1,0.7,1.8,0.7
		c0.9,0,2.1-0.3,3.5-0.8c1-0.4,2.4-1.1,2.4-2.3C291,74.4,290.8,73.9,290.5,73.3z M271.2,53.9c0.9-1.4,2.4-2.1,4.5-2.1
		c1.2,0,2.1,0.1,3.1,0.4c0.8,0.2,1.9,0.5,1.9,0.8v11.6c0,4-0.1,5.3-0.3,5.7c-0.3,0.7-0.8,1.2-1.7,1.6c-0.9,0.4-1.9,0.7-3.1,0.7
		c-2.1,0-3.5-0.9-4.4-2.6c-0.9-1.9-1.4-4.6-1.4-8C269.7,58.2,270.2,55.4,271.2,53.9z"/>
</g>
<g>
	<path class="st1" d="M41.1,51.4l4.3-15.1c-2.5-3.9-8.3-3.8-10.6,0.3l0,0.1l4.8,14.8C39.8,52.2,40.9,52.1,41.1,51.4z"/>
	<path class="st1" d="M72,82.4l-13.8-2.5c-0.8-0.1-1.2,0.8-0.7,1.3l9.8,9.7C71.2,90.2,73.5,86,72,82.4z"/>
	<path class="st1" d="M22.8,79.8L8.4,82.5c-1.5,3.8,1.1,8,5.3,8.4l9.9-9.8C24,80.6,23.6,79.7,22.8,79.8z"/>
	<path class="st1" d="M47.6,76.8c-1.1-1.1-0.1-2.9,1.4-2.6l18.9,3.5c0.7,0.1,1.2-0.6,0.8-1.2l-19.6-34c-0.3-0.6-1.2-0.5-1.4,0.2
		L42,62.3c-0.4,1.5-2.5,1.5-3,0.1l-6.3-19.5c-0.2-0.6-1.1-0.7-1.4-0.1L11.7,76.6c-0.3,0.6,0.2,1.3,0.8,1.2l19.6-3.6
		c1.5-0.3,2.5,1.6,1.4,2.6l-13,12.9C20,90.2,20.4,91,21.1,91H60c0.7,0,1-0.9,0.5-1.4L47.6,76.8z"/>
</g>
</svg>
